<svg width="13" height="10" viewBox="0 0 13 10" fill="none" xmlns="http://www.w3.org/2000/svg">
<path d="M7.72 1.51129C7.58752 1.36912 7.5154 1.18107 7.51882 0.98677C7.52225 0.792469 7.60097 0.607083 7.73838 0.46967C7.87579 0.332257 8.06118 0.253545 8.25548 0.250117C8.44978 0.246689 8.63783 0.318812 8.78 0.451292L12.78 4.45129C12.9205 4.59192 12.9993 4.78254 12.9993 4.98129C12.9993 5.18004 12.9205 5.37067 12.78 5.51129L8.78 9.51129C8.71134 9.58498 8.62854 9.64408 8.53654 9.68507C8.44454 9.72606 8.34523 9.74811 8.24452 9.74988C8.14382 9.75166 8.04379 9.73314 7.9504 9.69541C7.85701 9.65769 7.77218 9.60155 7.70096 9.53033C7.62974 9.45911 7.5736 9.37428 7.53588 9.28089C7.49816 9.1875 7.47963 9.08747 7.48141 8.98677C7.48318 8.88607 7.50523 8.78675 7.54622 8.69475C7.58721 8.60275 7.64631 8.51995 7.72 8.45129L10.44 5.73129H0.75C0.551088 5.73129 0.360322 5.65227 0.21967 5.51162C0.0790175 5.37097 0 5.1802 0 4.98129C0 4.78238 0.0790175 4.59161 0.21967 4.45096C0.360322 4.31031 0.551088 4.23129 0.75 4.23129H10.44L7.72 1.51129Z" fill="#393E46"/>
</svg>
