<svg width="36" height="36" viewBox="0 0 36 36" fill="none" xmlns="http://www.w3.org/2000/svg">
<path d="M5.29155 32.0972L2.46387 0.380371H33.5364L30.7059 32.0924L17.9813 35.6202L5.29155 32.0972Z" fill="#0F4C75"/>
<path d="M18.0002 32.9237L28.2825 30.073L30.7015 2.97339H18.0002V32.9237Z" fill="#0F4C75"/>
<path d="M18.0002 14.4644H23.1477L23.5032 10.481H18.0002V6.59106H27.7546L27.6612 7.63478L26.7049 18.3543H18.0002V14.4644Z" fill="white"/>
<path d="M18.0233 24.5669L18.0061 24.572L13.674 23.4023L13.397 20.2998H9.49268L10.0375 26.4077L18.0056 28.6192L18.0233 28.6141V24.5669Z" fill="white"/>
<path d="M22.8169 18.1899L22.3483 23.3993L18.0098 24.5704V28.6176L25.9843 26.4075L26.0428 25.7502L26.7195 18.1899H22.8169Z" fill="white"/>
<path d="M18.0135 6.59106V10.481H8.61747L8.53957 9.60691L8.36238 7.63478L8.26929 6.59106H18.0135ZM18.0003 14.4649V18.3549H13.7227L13.6448 17.4808L13.4673 15.5087L13.3745 14.4649H18.0003Z" fill="white"/>
</svg>
