<svg width="36" height="36" viewBox="0 0 36 36" fill="none" xmlns="http://www.w3.org/2000/svg">
<g clip-path="url(#clip0_74_271)">
<path d="M36 27.882C35.476 28.0799 34.8978 28.0793 34.3742 27.8803C33.8507 27.6814 33.4179 27.2979 33.1575 26.802L27.9825 19.6455L27.2325 18.645L21.228 26.811C20.9835 27.2863 20.5742 27.6563 20.0768 27.8517C19.5793 28.0472 19.0277 28.0548 18.525 27.873L26.262 17.493L19.065 8.11653C19.5825 7.93005 20.1485 7.92757 20.6676 8.10953C21.1867 8.29149 21.6272 8.64677 21.915 9.11554L27.279 16.3605L32.673 9.14554C32.9194 8.67872 33.3288 8.31872 33.8233 8.13398C34.3178 7.94924 34.8629 7.95264 35.355 8.14353L32.562 11.85L28.779 16.7745C28.674 16.8682 28.5899 16.9831 28.5323 17.1116C28.4748 17.2401 28.445 17.3793 28.445 17.52C28.445 17.6608 28.4748 17.8 28.5323 17.9285C28.5899 18.057 28.674 18.1718 28.779 18.2655L35.985 27.8835L36 27.882ZM0.00301966 17.364L0.63302 14.2515C2.36402 8.09704 9.42002 5.53653 14.274 9.34653C17.1165 11.58 17.826 14.742 17.6865 18.306H1.67402C1.41452 24.6705 6.00752 28.5135 11.88 26.55C12.8319 26.2071 13.6839 25.6336 14.3598 24.8807C15.0356 24.1279 15.5143 23.2192 15.753 22.236C16.0635 21.237 16.575 21.066 17.514 21.354C17.3572 22.5725 16.9263 23.7396 16.2537 24.7676C15.5811 25.7957 14.6842 26.6579 13.6305 27.2895C11.8898 28.2422 9.89228 28.6199 7.92387 28.3685C5.95545 28.1172 4.11698 27.2496 2.67152 25.89C1.24253 24.2808 0.378675 22.2486 0.21152 20.103C0.21152 19.7505 0.0915197 19.4205 0.0105197 19.104C0.00320345 18.5246 -0.000296628 17.9451 1.96597e-05 17.3655L0.00301966 17.364ZM1.69352 16.935H16.1745C16.0845 12.321 13.173 9.04804 9.28952 9.01804C4.96652 8.95803 1.87352 12.159 1.68302 16.914L1.69352 16.935Z" fill="#0F4C75"/>
</g>
<defs>
<clipPath id="clip0_74_271">
<rect width="36" height="36" fill="white"/>
</clipPath>
</defs>
</svg>
