<svg width="24" height="25" viewBox="0 0 24 25" fill="none" xmlns="http://www.w3.org/2000/svg">
<path d="M9.09597 21.75V18.604C9.096 17.8325 9.36393 17.0849 9.85397 16.489C6.84897 16.089 4.57397 14.63 4.57397 10.691C4.57397 9.025 6.00597 6.801 6.00597 6.801C5.49197 5.671 5.50597 3.717 6.06597 3.25C6.06597 3.25 8.01597 3.425 9.91297 5C11.751 4.505 13.677 4.446 15.574 5C17.471 3.425 19.422 3.25 19.422 3.25C19.98 3.717 19.995 5.672 19.482 6.801C19.482 6.801 20.914 9.025 20.914 10.691C20.914 14.631 18.638 16.089 15.634 16.489C16.1237 17.085 16.3912 17.8326 16.391 18.604V21.75" stroke="#222831" stroke-opacity="0.9" stroke-width="1.5" stroke-linecap="round" stroke-linejoin="round"/>
<path d="M3.08594 17.0701C3.24894 17.6241 3.54894 18.1361 3.96394 18.5661C4.37794 18.9971 4.89594 19.3361 5.47694 19.5541C6.06181 19.7736 6.68628 19.8678 7.30988 19.8306C7.93349 19.7934 8.54232 19.6256 9.09694 19.3381" stroke="#222831" stroke-opacity="0.9" stroke-width="1.5" stroke-linecap="round" stroke-linejoin="round"/>
</svg>
