<svg width="36" height="36" viewBox="0 0 36 36" fill="none" xmlns="http://www.w3.org/2000/svg">
<path d="M18.0015 3C9.71397 3 3.00147 9.7125 3.00147 18C2.99875 21.1489 3.9881 24.2187 5.82905 26.7735C7.67 29.3282 10.269 31.2381 13.257 32.232C14.007 32.3625 14.289 31.9125 14.289 31.518C14.289 31.1625 14.2695 29.982 14.2695 28.725C10.5015 29.4195 9.52647 27.807 9.22647 26.9625C9.05697 26.5305 8.32647 25.2 7.68897 24.843C7.16397 24.5625 6.41397 23.868 7.66947 23.85C8.85147 23.8305 9.69447 24.9375 9.97647 25.3875C11.3265 27.6555 13.482 27.018 14.3445 26.625C14.4765 25.65 14.8695 24.9945 15.3015 24.6195C11.964 24.2445 8.47647 22.95 8.47647 17.2125C8.47647 15.5805 9.05697 14.232 10.014 13.182C9.86397 12.807 9.33897 11.2695 10.164 9.207C10.164 9.207 11.4195 8.8125 14.289 10.743C15.5102 10.405 16.7718 10.2349 18.039 10.2375C19.314 10.2375 20.589 10.4055 21.789 10.743C24.6585 8.793 25.914 9.207 25.914 9.207C26.739 11.2695 26.214 12.807 26.064 13.182C27.0195 14.232 27.6015 15.5625 27.6015 17.2125C27.6015 22.9695 24.096 24.2445 20.7585 24.6195C21.3015 25.0875 21.771 25.9875 21.771 27.3945C21.771 29.4 21.7515 31.0125 21.7515 31.5195C21.7515 31.9125 22.0335 32.3805 22.7835 32.2305C25.7602 31.2242 28.3467 29.3101 30.1793 26.7576C32.0119 24.205 32.9983 21.1423 33 18C33 9.7125 26.2875 3 18 3" fill="#1B262C"/>
</svg>
