<svg width="36" height="36" viewBox="0 0 36 36" fill="none" xmlns="http://www.w3.org/2000/svg">
<g clip-path="url(#clip0_74_254)">
<path d="M0 0H36V36H0V0Z" fill="#0F4C75"/>
<path d="M9.46572 30.0842L12.2206 28.4169C12.7521 29.3592 13.2356 30.1566 14.3953 30.1566C15.507 30.1566 16.208 29.7218 16.208 28.0303V16.5275H19.591V28.0781C19.591 31.5821 17.537 33.1771 14.5403 33.1771C11.834 33.1771 10.2631 31.7755 9.46558 30.0839M21.4285 29.7216L24.1831 28.1268C24.9083 29.311 25.8508 30.1809 27.518 30.1809C28.9199 30.1809 29.8137 29.48 29.8137 28.5134C29.8137 27.3535 28.8955 26.9426 27.3489 26.2662L26.5033 25.9034C24.0625 24.8646 22.4434 23.5596 22.4434 20.8047C22.4434 18.2673 24.3766 16.334 27.3974 16.334C29.5481 16.334 31.0947 17.0832 32.2062 19.0406L29.572 20.7323C28.9919 19.6932 28.3639 19.2825 27.3972 19.2825C26.4064 19.2825 25.7781 19.9108 25.7781 20.7323C25.7781 21.7472 26.4064 22.1582 27.8562 22.7866L28.702 23.149C31.5777 24.3815 33.1967 25.638 33.1967 28.4651C33.1967 31.5102 30.8044 33.1775 27.5905 33.1775C24.449 33.1775 22.4191 31.6793 21.4284 29.7218" fill="white"/>
</g>
<defs>
<clipPath id="clip0_74_254">
<rect width="36" height="36" fill="white"/>
</clipPath>
</defs>
</svg>
