<svg width="36" height="36" viewBox="0 0 36 36" fill="none" xmlns="http://www.w3.org/2000/svg">
<g clip-path="url(#clip0_74_273)">
<path d="M7.6699 0.0308935C7.61365 0.0528311 6.03303 0.953394 4.15793 2.03114C1.886 3.33727 0.719089 4.02521 0.656651 4.08989C0.603214 4.15317 0.561026 4.22546 0.533464 4.30364C0.486495 4.46227 0.48312 27.6432 0.530651 27.81C0.547807 27.8746 0.603776 27.9697 0.654401 28.022C0.777026 28.1514 14.3412 35.9505 14.506 35.9881C14.5825 36.0064 14.6682 36.0033 14.7535 35.9797C14.9385 35.9333 28.4672 28.1514 28.5876 28.0243C28.6368 27.9694 28.6931 27.8746 28.7113 27.8102C28.735 27.7335 28.7437 26.5221 28.7437 23.9698V20.2404L32.0416 18.3462C35.1511 16.5583 35.3415 16.4463 35.4214 16.3237L35.503 16.1915V12.1744C35.503 7.80155 35.5114 8.04764 35.3384 7.88958C35.292 7.84852 33.7077 6.92405 31.8144 5.83364L28.3752 3.85589H27.993L24.6284 5.78808C22.7761 6.85346 21.2017 7.76442 21.1249 7.81392C21.0484 7.86455 20.957 7.95792 20.9196 8.02571L20.8515 8.14299L20.8363 11.9272L20.8228 15.7128L18.0444 17.3131C16.5161 18.1918 15.244 18.9191 15.217 18.9258C15.1677 18.9396 15.1644 18.5793 15.1644 11.6229V4.30111L15.0912 4.17539C14.9996 4.02211 15.4107 4.26652 11.282 1.89333C7.81953 -0.0979189 7.90278 -0.056294 7.6699 0.0308935ZM10.8528 2.92974C12.3012 3.76083 13.4864 4.44849 13.4864 4.45692C13.4864 4.46564 12.2163 5.19971 10.6641 6.09183L7.84006 7.71324L5.02109 6.09211C3.47225 5.19971 2.20296 4.46564 2.20296 4.45692C2.20296 4.44821 3.47 3.71442 5.01912 2.82427L7.83134 1.20652L8.0254 1.31227C8.96965 1.84852 9.91212 2.38767 10.8528 2.92974ZM31.0094 6.65939C32.5344 7.53746 33.7961 8.26308 33.8079 8.27489C33.8399 8.30386 28.2464 11.5191 28.1699 11.5157C28.0934 11.5135 22.5688 8.32777 22.5711 8.28896C22.5739 8.2448 28.1322 5.04699 28.1885 5.05571C28.2141 5.06189 29.4842 5.78414 31.0094 6.65939ZM4.58431 7.12346L7.27249 8.67118L7.28796 16.3344L7.30203 23.999L7.36756 24.1025C7.40187 24.1571 7.46656 24.2316 7.51381 24.2659C7.55824 24.2983 9.05421 25.1507 10.8376 26.157L14.0776 27.9869V31.2288C14.0776 33.008 14.0655 34.4677 14.0503 34.4677C14.0388 34.4677 11.2378 32.8649 7.82796 30.9026L1.62921 27.3377L1.62078 16.3785L1.61543 5.42274L1.75325 5.49896C1.83284 5.54114 3.10521 6.27183 4.58403 7.12317L4.58431 7.12346ZM14.0776 12.5178V19.5797L13.9688 19.6509C13.8211 19.7443 8.43743 22.8389 8.41915 22.8389C8.41071 22.8389 8.40396 19.6506 8.40396 15.7533L8.40734 8.67089L11.2198 7.05314C12.7664 6.16299 14.0419 5.44074 14.0571 5.44608C14.0681 5.45283 14.0776 8.63546 14.0776 12.5178ZM24.8073 10.8936L27.6263 12.5145V15.7275C27.6263 18.7756 27.6232 18.9393 27.5768 18.9216C27.5467 18.9101 26.2712 18.1791 24.7409 17.2977L21.9537 15.6974V12.4855C21.9537 10.7173 21.9627 9.27249 21.9712 9.27249C21.9833 9.27249 23.2585 10.0015 24.8073 10.8936ZM34.4159 12.465C34.4159 14.2239 34.4041 15.6746 34.3923 15.6886C34.3721 15.721 28.7966 18.9337 28.7611 18.9337C28.7524 18.9337 28.7437 17.4895 28.7437 15.721V12.5091L31.5562 10.8902C33.105 10.0015 34.3805 9.27249 34.3923 9.27249C34.4072 9.27249 34.4159 10.7083 34.4159 12.465ZM26.998 19.9499L14.6263 27.0112L9.01568 23.8199C9.01568 23.8199 21.3749 16.6716 21.4244 16.6902L26.998 19.9499ZM27.6209 24.12L27.6114 27.338L21.416 30.9031C18.0072 32.8651 15.2054 34.468 15.1914 34.468C15.1765 34.468 15.1647 33.1579 15.1647 31.2291V27.9871L21.3747 24.4456C24.7868 22.4985 27.5906 20.9047 27.6055 20.9013C27.6176 20.9013 27.6229 22.3492 27.6207 24.1197L27.6209 24.12Z" fill="#0F4C75"/>
</g>
<defs>
<clipPath id="clip0_74_273">
<rect width="36" height="36" fill="white"/>
</clipPath>
</defs>
</svg>
