<svg width="302" height="277" viewBox="0 0 302 277" fill="none" xmlns="http://www.w3.org/2000/svg">
<rect width="302" height="277" fill="#000033"/>
<path d="M218.71 115.633H186.668C186.083 111.487 184.888 107.805 183.084 104.587C181.279 101.319 178.963 98.5393 176.134 96.2472C173.306 93.955 170.038 92.1993 166.332 90.9801C162.674 89.7609 158.699 89.1513 154.408 89.1513C146.653 89.1513 139.899 91.0777 134.144 94.9304C128.389 98.7344 123.927 104.294 120.757 111.609C117.587 118.876 116.002 127.703 116.002 138.091C116.002 148.771 117.587 157.745 120.757 165.011C123.976 172.278 128.463 177.764 134.217 181.471C139.972 185.177 146.629 187.031 154.188 187.031C158.431 187.031 162.357 186.47 165.966 185.348C169.624 184.226 172.867 182.593 175.695 180.447C178.524 178.252 180.865 175.594 182.718 172.473C184.62 169.352 185.937 165.792 186.668 161.793L218.71 161.939C217.88 168.815 215.808 175.448 212.491 181.837C209.224 188.177 204.81 193.858 199.251 198.881C193.74 203.856 187.156 207.806 179.499 210.732C171.891 213.61 163.284 215.048 153.676 215.048C140.313 215.048 128.365 212.025 117.831 205.977C107.346 199.93 99.0549 191.176 92.9588 179.715C86.9115 168.254 83.8878 154.38 83.8878 138.091C83.8878 121.753 86.9602 107.854 93.1051 96.3935C99.25 84.9328 107.589 76.2031 118.124 70.2045C128.658 64.1572 140.509 61.1335 153.676 61.1335C162.357 61.1335 170.404 62.3527 177.817 64.7912C185.278 67.2296 191.887 70.7898 197.641 75.4716C203.396 80.1046 208.078 85.7862 211.687 92.5163C215.344 99.2464 217.685 106.952 218.71 115.633Z" fill="white"/>
</svg>
