<svg width="96" height="96" viewBox="0 0 96 96" fill="none" xmlns="http://www.w3.org/2000/svg">
<rect width="96" height="96" rx="48" fill="#3282B8"/>
<path d="M68.6136 41.25H58.6591C58.4773 39.9621 58.1061 38.8182 57.5455 37.8182C56.9849 36.803 56.2652 35.9394 55.3864 35.2273C54.5076 34.5151 53.4924 33.9697 52.3409 33.5909C51.2045 33.2121 49.9697 33.0227 48.6364 33.0227C46.2273 33.0227 44.1288 33.6212 42.3409 34.8182C40.553 36 39.1667 37.7273 38.1818 40C37.197 42.2576 36.7045 45 36.7045 48.2273C36.7045 51.5455 37.197 54.3333 38.1818 56.5909C39.1818 58.8485 40.5758 60.553 42.3636 61.7045C44.1515 62.8561 46.2197 63.4318 48.5682 63.4318C49.8864 63.4318 51.1061 63.2576 52.2273 62.9091C53.3636 62.5606 54.3712 62.053 55.25 61.3864C56.1288 60.7045 56.8561 59.8788 57.4318 58.9091C58.0227 57.9394 58.4318 56.8333 58.6591 55.5909L68.6136 55.6364C68.3561 57.7727 67.7121 59.8333 66.6818 61.8182C65.6667 63.7879 64.2955 65.553 62.5682 67.1136C60.8561 68.6591 58.8106 69.8864 56.4318 70.7955C54.0682 71.6894 51.3939 72.1364 48.4091 72.1364C44.2576 72.1364 40.5455 71.197 37.2727 69.3182C34.0152 67.4394 31.4394 64.7197 29.5455 61.1591C27.6667 57.5985 26.7273 53.2879 26.7273 48.2273C26.7273 43.1515 27.6818 38.8333 29.5909 35.2727C31.5 31.7121 34.0909 29 37.3636 27.1364C40.6364 25.2576 44.3182 24.3182 48.4091 24.3182C51.1061 24.3182 53.6061 24.697 55.9091 25.4545C58.2273 26.2121 60.2803 27.3182 62.0682 28.7727C63.8561 30.2121 65.3106 31.9773 66.4318 34.0682C67.5682 36.1591 68.2955 38.553 68.6136 41.25Z" fill="white"/>
</svg>
