<svg width="36" height="36" viewBox="0 0 36 36" fill="none" xmlns="http://www.w3.org/2000/svg">
<g clip-path="url(#clip0_74_275)">
<path d="M33.0998 27.6306C31.1387 27.5769 29.6413 27.7603 28.3602 28.2997C27.9965 28.4536 27.4166 28.457 27.3573 28.9129C27.5572 29.1227 27.5879 29.4357 27.7474 29.6939C28.0528 30.1872 28.5692 30.8507 29.0296 31.1991C29.5327 31.5783 30.0514 31.9847 30.5908 32.3132C31.551 32.8987 32.6223 33.2329 33.5451 33.8184C34.0901 34.1644 34.6304 34.5995 35.1622 34.9895C35.4249 35.1819 35.6018 35.4817 35.9421 35.6027V35.5478C35.763 35.3195 35.7169 35.005 35.5521 34.7668L34.827 34.0417C34.1182 33.1012 33.2185 32.2752 32.2628 31.5895C31.5004 31.0414 29.7932 30.302 29.4756 29.4155L29.4197 29.3595C29.9602 29.2979 30.5931 29.1024 31.0928 28.9683C31.931 28.7441 32.6805 28.8023 33.5451 28.5782L34.7162 28.2443V28.0213C34.2788 27.573 33.9669 26.9787 33.4902 26.5723C32.2412 25.5089 30.8788 24.4475 29.4759 23.5621C28.698 23.071 27.7367 22.7512 26.9118 22.335C26.6339 22.1955 26.1471 22.1218 25.9637 21.8889C25.5308 21.3374 25.2946 20.6376 24.9607 19.9939C24.261 18.6458 23.5742 17.1749 22.9535 15.7565C22.5305 14.7899 22.2548 13.8362 21.7275 12.9694C19.1962 8.8077 16.4718 6.2953 12.2508 3.82648C11.3522 3.30139 10.2711 3.09383 9.12833 2.82242L7.28811 2.71133C6.91349 2.55523 6.52452 2.09708 6.17296 1.87405C4.77486 0.990077 1.1878 -0.931423 0.151675 1.59533C-0.50195 3.18945 1.12958 4.74505 1.71289 5.55364C2.12267 6.11951 2.64664 6.75542 2.93886 7.39273C3.13236 7.81236 3.16527 8.23198 3.33008 8.67495C3.73452 9.76705 4.08805 10.9556 4.6123 11.9642C4.87696 12.4749 5.16917 13.0124 5.50442 13.4694C5.70889 13.7495 6.0613 13.8739 6.11755 14.3056C5.77246 14.7879 5.75277 15.536 5.55955 16.1458C4.68824 18.8936 5.01786 22.308 6.28461 24.3406C6.67358 24.9658 7.58989 26.3037 8.84877 25.7907C9.95071 25.3413 9.70461 23.9516 10.0199 22.7245C10.0913 22.4466 10.0475 22.2422 10.187 22.0554V22.1114L11.191 24.1175C11.9338 25.314 13.2509 26.5641 14.3683 27.4079C14.9474 27.8452 15.4033 28.601 16.1525 28.8569V28.8009H16.0966C15.9515 28.5745 15.7242 28.4811 15.5397 28.3C15.1035 27.8717 14.618 27.3398 14.2575 26.8499C13.2413 25.4712 12.3436 23.9615 11.5263 22.3907C11.135 21.6403 10.7956 20.8131 10.466 20.0495C10.3386 19.7551 10.3408 19.309 10.0759 19.1574C9.71558 19.7165 9.18374 20.1694 8.90474 20.8295C8.4598 21.8853 8.40158 23.174 8.23677 24.5088C8.13889 24.5439 8.18192 24.5197 8.12483 24.5647C7.34802 24.3769 7.07577 23.5781 6.78664 22.8916C6.05708 21.158 5.92096 18.3663 6.56361 16.3691C6.72955 15.8527 7.48105 14.2268 7.17674 13.749C7.03161 13.2734 6.55264 12.9975 6.28461 12.6338C5.95274 12.1844 5.62227 11.5924 5.39249 11.0726C4.79483 9.7212 4.51696 8.20301 3.88724 6.83642C3.5863 6.1828 3.07864 5.5213 2.66127 4.94136C2.19861 4.29758 1.68139 3.82283 1.32308 3.04517C1.19567 2.76842 1.02327 2.32545 1.21114 2.04223C1.27161 1.84986 1.35627 1.7697 1.54611 1.70726C1.86899 1.4578 2.77011 1.7908 3.10621 1.9303C4.00058 2.30155 4.74646 2.65536 5.50442 3.15739C5.86696 3.39786 6.23511 3.86389 6.67443 3.99355H7.17646C7.96086 4.17383 8.83977 4.04839 9.57355 4.27142C10.8698 4.66573 12.0311 5.27886 13.0858 5.94458C16.2982 7.9738 18.9262 10.8608 20.7234 14.3073C21.0123 14.8622 21.1377 15.3906 21.3925 15.9793C21.9055 17.1659 22.5527 18.3865 23.0634 19.5478C23.5742 20.7046 24.0709 21.8737 24.7926 22.837C25.1717 23.3435 26.635 23.615 27.3007 23.8962C27.7676 24.0928 28.5323 24.2984 28.9739 24.5653C29.8176 25.0741 30.635 25.6805 31.4272 26.2373C31.8216 26.5163 33.0388 27.1283 33.0993 27.6315L33.0998 27.6306ZM8.17968 6.39064C7.77102 6.38305 7.48217 6.43451 7.17674 6.50173V6.5577H7.23158C7.42705 6.95764 7.77102 7.21583 8.01261 7.56064L8.56949 8.73176L8.62546 8.67692C8.97055 8.43308 9.12861 8.04411 9.12636 7.44983C8.98799 7.30358 8.9683 7.12245 8.84736 6.9478C8.6893 6.71605 8.38049 6.58527 8.17939 6.39092L8.17968 6.39064Z" fill="#0F4C75"/>
</g>
<defs>
<clipPath id="clip0_74_275">
<rect width="36" height="36" fill="white"/>
</clipPath>
</defs>
</svg>
