<svg width="36" height="36" viewBox="0 0 36 36" fill="none" xmlns="http://www.w3.org/2000/svg">
<path d="M0 18.0001C0 23.2294 8.05894 27.4689 18 27.4689C27.9411 27.4689 36 23.2294 36 18.0001C36 12.7708 27.9408 8.53125 18 8.53125C8.05922 8.53125 0 12.7708 0 18.0001Z" fill="url(#paint0_radial_74_260)"/>
<path d="M18 26.7658C27.5527 26.7658 35.2969 22.841 35.2969 18.0001C35.2969 13.1587 27.5527 9.23438 18 9.23438C8.44734 9.23438 0.703125 13.1587 0.703125 18.0001C0.703125 22.841 8.44734 26.7658 18 26.7658Z" fill="#0F4C75"/>
<path d="M9.77965 19.0868C10.5652 19.0868 11.1513 18.9419 11.5223 18.6565C11.8896 18.3735 12.143 17.8839 12.276 17.201C12.3998 16.5626 12.3525 16.1171 12.1354 15.8763C11.9138 15.6305 11.4342 15.5059 10.7103 15.5059H9.45481L8.75928 19.0868H9.77965ZM5.67368 23.4976C5.64488 23.4976 5.61644 23.4912 5.5904 23.4789C5.56437 23.4665 5.54139 23.4486 5.52311 23.4263C5.50483 23.4041 5.4917 23.378 5.48467 23.3501C5.47763 23.3222 5.47687 23.293 5.48243 23.2648L7.32659 13.7759C7.3353 13.7316 7.35913 13.6916 7.394 13.6629C7.42887 13.6341 7.47263 13.6183 7.51784 13.6182H11.493C12.7423 13.6182 13.6722 13.9574 14.2569 14.6264C14.8441 15.2986 15.0258 16.2391 14.796 17.4207C14.7024 17.9019 14.5415 18.3488 14.3179 18.7493C14.0852 19.1613 13.7882 19.5335 13.4382 19.8518C13.0076 20.2545 12.5202 20.547 11.9906 20.7189C11.4697 20.8888 10.8003 20.9748 10.0021 20.9748H8.39225L7.93268 23.3396C7.92401 23.3841 7.90013 23.4242 7.86513 23.453C7.83014 23.4819 7.78621 23.4976 7.74087 23.4976H5.67368Z" fill="white"/>
<path d="M9.61589 15.701H10.7102C11.5841 15.701 11.8875 15.8928 11.9908 16.0073C12.1615 16.1969 12.1941 16.5971 12.0839 17.1638C11.9604 17.7986 11.7315 18.2489 11.4032 18.5014C11.0674 18.7602 10.5207 18.8912 9.77958 18.8912H8.99602L9.61589 15.701ZM11.493 13.4229H7.51805C7.4274 13.4229 7.33958 13.4544 7.2696 13.512C7.19962 13.5696 7.15183 13.6498 7.13442 13.7387L5.29026 23.2278C5.27937 23.2843 5.2811 23.3426 5.29532 23.3984C5.30954 23.4541 5.3359 23.5061 5.37252 23.5505C5.40914 23.5949 5.45511 23.6307 5.50716 23.6553C5.55921 23.6799 5.61605 23.6927 5.67361 23.6927H7.7408C7.83143 23.6926 7.91922 23.6611 7.98915 23.6034C8.05908 23.5457 8.1068 23.4656 8.12414 23.3766L8.55305 21.1699H10.0018C10.8208 21.1699 11.5104 21.0805 12.0512 20.9044C12.6073 20.7239 13.1189 20.4176 13.5717 19.994C13.9363 19.662 14.2458 19.274 14.4883 18.8445C14.722 18.4263 14.8902 17.9595 14.9875 17.4577C15.2294 16.2137 15.0328 15.2178 14.4036 14.4978C13.7804 13.7843 12.801 13.4226 11.493 13.4226V13.4229ZM8.52211 19.2816H9.77958C10.613 19.2818 11.2336 19.1248 11.6415 18.8105C12.0493 18.4966 12.3247 17.9725 12.4678 17.238C12.6043 16.5327 12.5419 16.035 12.2807 15.7452C12.0192 15.4553 11.4957 15.3104 10.7102 15.3104H9.29386L8.52211 19.2816ZM11.4932 13.8127C12.6891 13.8127 13.5613 14.1266 14.1097 14.7543C14.6581 15.3821 14.8231 16.2583 14.6047 17.3829C14.5143 17.8464 14.362 18.27 14.1477 18.6536C13.933 19.0376 13.6526 19.3889 13.3065 19.7074C12.894 20.0937 12.4353 20.3688 11.9306 20.5329C11.426 20.6971 10.7832 20.7792 10.002 20.779H8.2313L7.74108 23.3018H5.67389L7.51833 13.8127H11.4932Z" fill="white"/>
<path d="M19.5353 20.9747C19.5065 20.9747 19.478 20.9684 19.452 20.9561C19.4259 20.9438 19.4028 20.9259 19.3845 20.9037C19.3662 20.8814 19.353 20.8554 19.3459 20.8275C19.3388 20.7995 19.338 20.7704 19.3435 20.7421L20.1591 16.5436C20.237 16.1442 20.2179 15.8579 20.1057 15.7364C20.0368 15.6624 19.8304 15.5384 19.2198 15.5384H17.7415L16.7161 20.8169C16.7073 20.8614 16.6833 20.9014 16.6483 20.9301C16.6132 20.9588 16.5693 20.9745 16.524 20.9744H14.4737C14.4449 20.9744 14.4164 20.9681 14.3904 20.9558C14.3643 20.9436 14.3413 20.9257 14.3229 20.9035C14.3045 20.8813 14.2913 20.8553 14.2842 20.8274C14.277 20.7995 14.2762 20.7704 14.2816 20.7421L16.126 11.253C16.1348 11.2085 16.1587 11.1685 16.1936 11.1397C16.2286 11.1109 16.2725 11.0952 16.3178 11.0952H18.3681C18.3969 11.0952 18.4254 11.1015 18.4515 11.1138C18.4775 11.1261 18.5006 11.1439 18.5189 11.1661C18.5373 11.1883 18.5505 11.2143 18.5576 11.2422C18.5648 11.2701 18.5657 11.2992 18.5602 11.3275L18.1153 13.618H19.7052C20.9165 13.618 21.7378 13.8312 22.2162 14.2708C22.7036 14.7188 22.856 15.4352 22.6685 16.4007L21.8104 20.8169C21.8016 20.8613 21.7776 20.9013 21.7427 20.93C21.7077 20.9587 21.6638 20.9744 21.6185 20.9744L19.5353 20.9747Z" fill="white"/>
<path d="M18.3685 10.8999H16.3179C16.2272 10.8999 16.1394 10.9315 16.0694 10.9891C15.9994 11.0468 15.9516 11.127 15.9343 11.216L14.0901 20.7048C14.0792 20.7614 14.0809 20.8196 14.0951 20.8755C14.1093 20.9313 14.1356 20.9833 14.1722 21.0277C14.2089 21.0722 14.2549 21.108 14.3069 21.1326C14.359 21.1572 14.4159 21.17 14.4735 21.17H16.5241C16.6147 21.17 16.7026 21.1385 16.7726 21.0808C16.8426 21.0231 16.8903 20.9429 16.9077 20.8539L17.9025 15.7337H19.2193C19.829 15.7337 19.9573 15.864 19.9621 15.8699C19.9992 15.9092 20.0478 16.0935 19.9674 16.5066L19.1518 20.7048C19.1408 20.7614 19.1425 20.8197 19.1567 20.8755C19.171 20.9314 19.1973 20.9834 19.234 21.0278C19.2706 21.0723 19.3167 21.1081 19.3688 21.1326C19.4209 21.1572 19.4778 21.17 19.5354 21.17H21.6189C21.7095 21.1699 21.7973 21.1384 21.8673 21.0807C21.9372 21.023 21.9849 20.9429 22.0022 20.8539L22.8603 16.4383C23.0614 15.4016 22.8893 14.6242 22.3485 14.1272C21.8321 13.6531 20.9675 13.4227 19.7053 13.4227H18.3525L18.7521 11.3654C18.7631 11.3088 18.7615 11.2505 18.7473 11.1946C18.7331 11.1387 18.7067 11.0867 18.67 11.0422C18.6334 10.9977 18.5873 10.9619 18.5352 10.9373C18.4831 10.9127 18.4261 10.8999 18.3685 10.8999ZM18.3685 11.2908L17.8783 13.8131H19.7053C20.8548 13.8131 21.6477 14.0137 22.0838 14.415C22.5203 14.8158 22.6514 15.4655 22.477 16.364L21.6186 20.7794H19.5354L20.3513 16.5809C20.4441 16.1033 20.4099 15.7776 20.2487 15.6038C20.0874 15.4302 19.7445 15.3434 19.2198 15.3434H17.5804L16.5241 20.7791H14.4732L16.3176 11.29H18.3685V11.2908Z" fill="white"/>
<path d="M25.9132 19.0868C26.6987 19.0868 27.2851 18.9419 27.6563 18.6565C28.0231 18.3735 28.2768 17.8839 28.4098 17.201C28.5336 16.5626 28.4866 16.1171 28.2692 15.8763C28.0476 15.6305 27.568 15.5059 26.8441 15.5059H25.5889L24.8928 19.0868H25.9132ZM21.808 23.4976C21.7792 23.4977 21.7507 23.4913 21.7246 23.479C21.6985 23.4667 21.6754 23.4488 21.6571 23.4265C21.6387 23.4043 21.6256 23.3782 21.6185 23.3502C21.6114 23.3223 21.6107 23.2931 21.6162 23.2648L23.4604 13.7759C23.4691 13.7315 23.493 13.6915 23.528 13.6627C23.563 13.6339 23.6069 13.6182 23.6522 13.6182H27.6271C28.8764 13.6182 29.8062 13.9574 30.3907 14.6264C30.9782 15.2986 31.1596 16.2391 30.9298 17.4207C30.8419 17.886 30.6806 18.3345 30.452 18.7493C30.2193 19.1613 29.9223 19.5335 29.5722 19.8518C29.1419 20.2545 28.6539 20.547 28.1246 20.7189C27.6038 20.8888 26.9344 20.9748 26.1359 20.9748H24.5263L24.067 23.3396C24.0583 23.3841 24.0344 23.4243 23.9994 23.4531C23.9643 23.4819 23.9203 23.4977 23.8749 23.4976H21.808Z" fill="white"/>
<path d="M25.7499 15.701H26.8443C27.7181 15.701 28.0216 15.8928 28.1245 16.0073C28.2961 16.1969 28.3281 16.5971 28.2182 17.1638C28.0944 17.7986 27.8655 18.2489 27.5373 18.5014C27.2012 18.7602 26.6544 18.8912 25.9136 18.8912H25.13L25.7499 15.701ZM27.627 13.4229H23.6521C23.5615 13.423 23.4737 13.4545 23.4038 13.5121C23.3339 13.5697 23.2861 13.6498 23.2687 13.7387L21.4243 23.2278C21.4134 23.2844 21.4151 23.3426 21.4294 23.3984C21.4436 23.4542 21.47 23.5062 21.5066 23.5506C21.5433 23.595 21.5893 23.6308 21.6414 23.6554C21.6935 23.6799 21.7503 23.6927 21.8079 23.6927H23.8751C23.9657 23.6926 24.0535 23.6611 24.1235 23.6034C24.1934 23.5457 24.2411 23.4656 24.2585 23.3766L24.6874 21.1699H26.1358C26.9545 21.1699 27.6444 21.0805 28.185 20.9044C28.7413 20.7239 29.2529 20.4176 29.706 19.9937C30.0705 19.6618 30.3798 19.2739 30.6223 18.8445C30.8563 18.4263 31.0239 17.9595 31.1215 17.4577C31.3634 16.2137 31.1671 15.2178 30.5376 14.4978C29.9144 13.7843 28.9354 13.4226 27.6267 13.4226L27.627 13.4229ZM24.6561 19.2816H25.9133C26.7468 19.2818 27.3676 19.1248 27.7758 18.8105C28.1836 18.4966 28.4588 17.9725 28.6015 17.238C28.7386 16.5327 28.6762 16.035 28.4145 15.7452C28.1527 15.4553 27.6293 15.3104 26.8443 15.3104H25.4282L24.6561 19.2816ZM27.627 13.8127C28.8229 13.8127 29.695 14.1266 30.2435 14.7543C30.7919 15.3821 30.9568 16.2583 30.7382 17.3829C30.6482 17.8464 30.4959 18.27 30.2814 18.6536C30.0669 19.0376 29.7864 19.3889 29.4399 19.7074C29.0274 20.0937 28.5688 20.3688 28.064 20.5329C27.5597 20.6971 26.9169 20.7792 26.1358 20.779H24.3653L23.8745 23.3018H21.8074L23.6518 13.8127H27.627Z" fill="white"/>
<defs>
<radialGradient id="paint0_radial_74_260" cx="0" cy="0" r="1" gradientUnits="userSpaceOnUse" gradientTransform="translate(10.8073 11.8601) scale(23.6366)">
<stop stop-color="#AEB2D5"/>
<stop offset="0.3" stop-color="#AEB2D5"/>
<stop offset="0.75" stop-color="#484C89"/>
<stop offset="1" stop-color="#484C89"/>
</radialGradient>
</defs>
</svg>
