<svg width="36" height="36" viewBox="0 0 36 36" fill="none" xmlns="http://www.w3.org/2000/svg">
<g clip-path="url(#clip0_74_277)">
<path d="M18.0012 7.20068C13.2011 7.20068 10.2022 9.59975 9.00122 14.3998C10.8007 12.0005 12.9013 11.1008 15.3007 11.7007C16.6706 12.0421 17.6497 13.0355 18.7339 14.1363C20.4984 15.927 22.5409 18.0001 27.0012 18.0001C31.801 18.0001 34.8003 15.6008 36.0012 10.7996C34.2012 13.2001 32.1013 14.1003 29.7015 13.5001C28.3318 13.1584 27.3539 12.1653 26.2683 11.0645C24.5048 9.27378 22.463 7.20068 18.0012 7.20068ZM9.00122 18.0001C4.20141 18.0001 1.20216 20.3995 0.0012207 25.2007C1.80103 22.8001 3.90085 21.8999 6.30066 22.5001C7.67063 22.8418 8.64966 23.8349 9.73388 24.9357C11.4984 26.7265 13.5409 28.7996 18.0012 28.7996C22.801 28.7996 25.8003 26.4005 27.0012 21.6004C25.2012 23.9998 23.1013 24.8996 20.7015 24.2996C19.3318 23.9581 18.3539 22.9647 17.2683 21.8639C15.5048 20.0732 13.463 18.0001 9.00122 18.0001Z" fill="#0F4C75"/>
</g>
<defs>
<clipPath id="clip0_74_277">
<rect width="36" height="36" fill="white"/>
</clipPath>
</defs>
</svg>
