<svg width="36" height="36" viewBox="0 0 36 36" fill="none" xmlns="http://www.w3.org/2000/svg">
<path d="M0.421875 17.9746V35.5527H35.5781V0.396484H0.421875V17.9746ZM28.7522 16.5684C29.5942 16.7638 30.3595 17.2042 30.9516 17.834C31.2774 18.1733 31.5608 18.5511 31.7953 18.959C31.7953 19.004 30.2766 20.0305 29.3512 20.6043C29.3175 20.6268 29.1825 20.4805 29.0334 20.2584C28.8645 19.9669 28.6245 19.723 28.3358 19.5494C28.0471 19.3757 27.7191 19.2781 27.3825 19.2655C26.3166 19.1924 25.6303 19.7521 25.6359 20.6718C25.6274 20.9007 25.6798 21.1279 25.7878 21.3299C26.0212 21.8165 26.4572 22.1062 27.8241 22.6968C30.3412 23.7796 31.4184 24.494 32.0878 25.5093C32.8359 26.6343 33.0019 28.4512 32.4956 29.7955C31.9331 31.258 30.555 32.2509 28.6059 32.5799C27.7157 32.6819 26.8163 32.6725 25.9284 32.5518C24.5677 32.3275 23.3142 31.6741 22.3509 30.6871C22.0275 30.3299 21.3975 29.399 21.4369 29.3315C21.5393 29.255 21.6475 29.1863 21.7603 29.1262L23.0625 28.4062L24.0722 27.8212L24.2831 28.1334C24.6392 28.6425 25.0922 29.0764 25.6163 29.4102C26.7413 30.0009 28.2769 29.9193 29.0362 29.2359C29.2912 28.9854 29.4503 28.6535 29.4857 28.2979C29.5212 27.9423 29.4308 27.5855 29.2303 27.2896C28.9491 26.8987 28.3866 26.5696 26.8144 25.8834C25.0003 25.1015 24.2184 24.6177 23.5041 23.8471C23.0582 23.3385 22.729 22.7385 22.5394 22.0893C22.3981 21.3475 22.3772 20.5878 22.4775 19.8393C22.8516 18.0871 24.165 16.8637 26.0831 16.5009C26.9714 16.3911 27.8712 16.4158 28.7522 16.574V16.5684ZM20.5003 18.0421V19.4821H15.9356V32.4843H12.6984V19.4793H8.1225V18.073C8.10815 17.5881 8.11941 17.1027 8.15625 16.619C8.17875 16.5937 10.9688 16.5937 14.3438 16.5937H20.4834L20.5003 18.0421Z" fill="#0F4C75"/>
</svg>
